<mxfile host="Electron" modified="2023-04-20T11:42:06.989Z" agent="Mozilla/5.0 (Windows NT 10.0; Win64; x64) AppleWebKit/537.36 (KHTML, like Gecko) draw.io/21.1.2 Chrome/106.0.5249.199 Electron/21.4.3 Safari/537.36" etag="9CbUcR6b09n_PV1mr3A8" version="21.1.2" type="device">
  <diagram name="Page-1" id="IqWINrPb3y6d9ZSf4m_e">
    <mxGraphModel dx="1195" dy="697" grid="1" gridSize="10" guides="1" tooltips="1" connect="1" arrows="1" fold="1" page="1" pageScale="1" pageWidth="827" pageHeight="1169" math="0" shadow="0">
      <root>
        <mxCell id="0" />
        <mxCell id="1" parent="0" />
        <mxCell id="gsbvKGtAEoiwyu1AySch-23" value="" style="rounded=0;whiteSpace=wrap;html=1;" vertex="1" parent="1">
          <mxGeometry x="30" y="120" width="710" height="360" as="geometry" />
        </mxCell>
        <mxCell id="gsbvKGtAEoiwyu1AySch-21" value="peering" style="edgeStyle=orthogonalEdgeStyle;rounded=0;orthogonalLoop=1;jettySize=auto;html=1;entryX=1;entryY=0.5;entryDx=0;entryDy=0;fillColor=#d5e8d4;strokeColor=#82b366;strokeWidth=2;startArrow=classic;startFill=1;dashed=1;" edge="1" parent="1" source="gsbvKGtAEoiwyu1AySch-8" target="gsbvKGtAEoiwyu1AySch-10">
          <mxGeometry x="0.3173" relative="1" as="geometry">
            <Array as="points">
              <mxPoint x="360" y="385" />
            </Array>
            <mxPoint as="offset" />
          </mxGeometry>
        </mxCell>
        <mxCell id="gsbvKGtAEoiwyu1AySch-22" value="peering" style="edgeStyle=orthogonalEdgeStyle;rounded=0;orthogonalLoop=1;jettySize=auto;html=1;entryX=0;entryY=0.5;entryDx=0;entryDy=0;fillColor=#d5e8d4;strokeColor=#82b366;strokeWidth=2;dashed=1;startArrow=classic;startFill=1;" edge="1" parent="1" source="gsbvKGtAEoiwyu1AySch-8" target="gsbvKGtAEoiwyu1AySch-14">
          <mxGeometry x="0.2" relative="1" as="geometry">
            <Array as="points">
              <mxPoint x="390" y="385" />
            </Array>
            <mxPoint as="offset" />
          </mxGeometry>
        </mxCell>
        <mxCell id="gsbvKGtAEoiwyu1AySch-8" value="" style="rounded=1;whiteSpace=wrap;html=1;fillColor=#dae8fc;strokeColor=#6c8ebf;" vertex="1" parent="1">
          <mxGeometry x="230" y="160" width="300" height="130" as="geometry" />
        </mxCell>
        <mxCell id="gsbvKGtAEoiwyu1AySch-2" value="GatewaySubnet" style="rounded=0;whiteSpace=wrap;html=1;fillColor=#f5f5f5;strokeColor=none;labelPosition=center;verticalLabelPosition=middle;align=center;verticalAlign=top;fontStyle=1;fontColor=#333333;fontSize=10;" vertex="1" parent="1">
          <mxGeometry x="389" y="180" width="110" height="90" as="geometry" />
        </mxCell>
        <mxCell id="gsbvKGtAEoiwyu1AySch-10" value="" style="rounded=1;whiteSpace=wrap;html=1;fillColor=#dae8fc;strokeColor=#6c8ebf;" vertex="1" parent="1">
          <mxGeometry x="60" y="320" width="190" height="130" as="geometry" />
        </mxCell>
        <mxCell id="gsbvKGtAEoiwyu1AySch-11" value="Default" style="rounded=0;whiteSpace=wrap;html=1;fillColor=#f5f5f5;strokeColor=none;labelPosition=center;verticalLabelPosition=middle;align=center;verticalAlign=top;fontStyle=1;fontColor=#333333;fontSize=10;" vertex="1" parent="1">
          <mxGeometry x="100" y="340" width="110" height="90" as="geometry" />
        </mxCell>
        <mxCell id="gsbvKGtAEoiwyu1AySch-14" value="" style="rounded=1;whiteSpace=wrap;html=1;fillColor=#dae8fc;strokeColor=#6c8ebf;" vertex="1" parent="1">
          <mxGeometry x="520" y="320" width="190" height="130" as="geometry" />
        </mxCell>
        <mxCell id="gsbvKGtAEoiwyu1AySch-15" value="Default" style="rounded=0;whiteSpace=wrap;html=1;fillColor=#f5f5f5;strokeColor=none;labelPosition=center;verticalLabelPosition=middle;align=center;verticalAlign=top;fontStyle=1;fontColor=#333333;fontSize=10;" vertex="1" parent="1">
          <mxGeometry x="560" y="340" width="110" height="90" as="geometry" />
        </mxCell>
        <mxCell id="gsbvKGtAEoiwyu1AySch-18" value="Default" style="rounded=0;whiteSpace=wrap;html=1;fillColor=#f5f5f5;strokeColor=none;labelPosition=center;verticalLabelPosition=middle;align=center;verticalAlign=top;fontStyle=1;fontColor=#333333;fontSize=10;" vertex="1" parent="1">
          <mxGeometry x="260" y="180" width="110" height="90" as="geometry" />
        </mxCell>
        <mxCell id="gsbvKGtAEoiwyu1AySch-5" value="Icons" parent="0" />
        <mxCell id="gsbvKGtAEoiwyu1AySch-4" value="" style="image;aspect=fixed;html=1;points=[];align=center;fontSize=12;image=img/lib/azure2/networking/Virtual_Network_Gateways.svg;" vertex="1" parent="gsbvKGtAEoiwyu1AySch-5">
          <mxGeometry x="429" y="210" width="30" height="39.81" as="geometry" />
        </mxCell>
        <mxCell id="gsbvKGtAEoiwyu1AySch-6" value="vnet-hub" style="image;aspect=fixed;html=1;points=[];align=left;fontSize=12;image=img/lib/azure2/networking/Virtual_Networks.svg;imageBackground=none;labelPosition=right;verticalLabelPosition=middle;verticalAlign=middle;spacingBottom=16;fontStyle=1;labelBackgroundColor=none;" vertex="1" parent="gsbvKGtAEoiwyu1AySch-5">
          <mxGeometry x="250" y="150" width="33.5" height="20" as="geometry" />
        </mxCell>
        <mxCell id="gsbvKGtAEoiwyu1AySch-13" value="vnet-spoke-01" style="image;aspect=fixed;html=1;points=[];align=left;fontSize=12;image=img/lib/azure2/networking/Virtual_Networks.svg;imageBackground=none;labelPosition=right;verticalLabelPosition=middle;verticalAlign=middle;spacingBottom=16;fontStyle=1;labelBackgroundColor=none;" vertex="1" parent="gsbvKGtAEoiwyu1AySch-5">
          <mxGeometry x="80" y="310" width="33.5" height="20" as="geometry" />
        </mxCell>
        <mxCell id="gsbvKGtAEoiwyu1AySch-17" value="vnet-spoke-02" style="image;aspect=fixed;html=1;points=[];align=left;fontSize=12;image=img/lib/azure2/networking/Virtual_Networks.svg;imageBackground=none;labelPosition=right;verticalLabelPosition=middle;verticalAlign=middle;spacingBottom=16;fontStyle=1;labelBackgroundColor=none;" vertex="1" parent="gsbvKGtAEoiwyu1AySch-5">
          <mxGeometry x="540" y="310" width="33.5" height="20" as="geometry" />
        </mxCell>
      </root>
    </mxGraphModel>
  </diagram>
</mxfile>
